<?xml version="1.0" encoding="UTF-8"?>
<svg width="53px" height="40px" viewBox="0 0 53 40" version="1.1" xmlns="http://www.w3.org/2000/svg" xmlns:xlink="http://www.w3.org/1999/xlink">
    <title>Group 9</title>
    <g id="Final-Designs" stroke="none" stroke-width="1" fill="none" fill-rule="evenodd">
        <g id="DarkMode" transform="translate(-918.000000, -433.000000)" stroke="#616262" stroke-width="2">
            <g id="Group-26" transform="translate(312.500000, 263.000000)">
                <g id="Group-9" transform="translate(606.500000, 171.683554)">
                    <path d="M6,3.31644594 L27,3.31644594 C30.3137085,3.31644594 33,6.00273745 33,9.31644594 L33,31.3164459 C33,34.6301544 30.3137085,37.3164459 27,37.3164459 L6,37.3164459 C2.6862915,37.3164459 0,34.6301544 0,31.3164459 L0,9.31644594 C0,6.00273745 2.6862915,3.31644594 6,3.31644594 Z M0,10.9097673 L33,10.9097673" id="Combined-Shape"></path>
                    <path d="M23.5968863,0.316445945 L23.5968863,5.94790774 M8.5968863,0.316445945 L8.5968863,5.94790774" id="Combined-Shape" stroke-linecap="round"></path>
                    <path d="M6.55122812,16.8889627 L10.0197699,16.8889627 M6.55122812,20.8889627 L10.0197699,20.8889627 M6.55122812,29.8889627 L10.0197699,29.8889627 M14.4990327,16.8889627 L17.9675745,16.8889627 M14.4990327,25.8889627 L17.9675745,25.8889627 M14.4990327,29.8889627 L17.9675745,29.8889627 M22.4468372,21.8889627 L25.915379,21.8889627 M22.4468372,25.8889627 L25.915379,25.8889627" id="Combined-Shape" stroke-linecap="round"></path>
                    <g id="Group-23" transform="translate(38.000000, 0.000000)" stroke-linecap="round" stroke-linejoin="round">
                        <path d="M4.5872954,0 L3.85746538,1.83105448 C3.16891995,3.55853093 1.75978164,4.89880264 0,5.5 L0,5.5 L0,5.5 C1.77366055,6.1147925 3.19113726,7.47232841 3.88194343,9.21778778 L4.5872954,11 L4.5872954,11 L5.26564043,9.27224206 C5.95881407,7.50671535 7.38551613,6.12990956 9.17459081,5.5 L9.17459081,5.5 L9.17459081,5.5 C7.45482681,4.93791287 6.06988356,3.64696553 5.38851057,1.97088051 L4.5872954,0 L4.5872954,0 Z" id="Path-17"></path>
                        <path d="M10.838376,12 L10.5729832,12.665838 C10.3226031,13.2940112 9.81018914,13.7813828 9.17026855,14 L9.17026855,14 L9.17026855,14 C9.81523602,14.2235609 10.3306821,14.7172103 10.5818843,15.3519228 L10.838376,16 L10.838376,16 L11.0850469,15.3717244 C11.33711,14.7297147 11.8559108,14.229058 12.5064834,14 L12.5064834,14 L12.5064834,14 C11.8811147,13.7956047 11.3774989,13.3261693 11.1297269,12.7166838 L10.838376,12 L10.838376,12 Z" id="Path-17" fill="#616262"></path>
                    </g>
                </g>
            </g>
        </g>
    </g>
</svg>