<?xml version="1.0" encoding="UTF-8"?>
<svg width="39px" height="41px" viewBox="0 0 39 41" version="1.1" xmlns="http://www.w3.org/2000/svg" xmlns:xlink="http://www.w3.org/1999/xlink">
    <title>Group 20</title>
    <g id="Final-Designs" stroke="none" stroke-width="1" fill="none" fill-rule="evenodd">
        <g id="DarkMode" transform="translate(-570.000000, -433.000000)" stroke="#616262" stroke-width="2">
            <g id="Group-26" transform="translate(312.500000, 263.000000)">
                <g id="Group-20" transform="translate(258.990989, 171.113252)">
                    <g id="Group-17">
                        <path d="M31,11.8818937 L31,8.9765001 C31,6.21507635 28.7614237,3.9765001 26,3.9765001 L5,3.9765001 C2.23857625,3.9765001 -1.77635684e-15,6.21507635 0,8.9765001 L0,32.9765001 C0,35.7379238 2.23857625,37.9765001 5,37.9765001 L26,37.9765001 C28.7614237,37.9765001 31,35.7379238 31,32.9765001 L31,29.9751462 L31,29.9751462" id="Path-8" stroke-linecap="round"></path>
                        <path d="M12.0325461,0 L19.8914394,1.52926298e-16 C20.8983882,-1.1696774e-16 21.4383724,0.139238417 21.9272613,0.400699056 C22.4161502,0.662159695 22.799833,1.04584256 23.0612937,1.53473144 C23.3227543,2.02362033 23.4619927,2.56360458 23.4619927,3.57055335 L23.4619927,4.42944665 C23.4619927,5.43639542 23.3227543,5.97637967 23.0612937,6.46526856 C22.799833,6.95415744 22.4161502,7.33784031 21.9272613,7.59930094 C21.4383724,7.86076158 20.8983882,8 19.8914394,8 L12.0325461,8 C11.0255973,8 10.4856131,7.86076158 9.99672418,7.59930094 C9.50783529,7.33784031 9.12415243,6.95415744 8.86269179,6.46526856 C8.60123115,5.97637967 8.46199274,5.43639542 8.46199274,4.42944665 L8.46199274,3.57055335 C8.46199274,2.56360458 8.60123115,2.02362033 8.86269179,1.53473144 C9.12415243,1.04584256 9.50783529,0.662159695 9.99672418,0.400699056 C10.4856131,0.139238417 11.0255973,0 12.0325461,0 Z" id="Rectangle" fill="#0C0C0C"></path>
                    </g>
                    <polyline id="Path-7" stroke-linecap="round" stroke-linejoin="round" points="27.4619927 20.3093548 30.4744673 23.3218293 36.4744673 17.3218293"></polyline>
                </g>
            </g>
        </g>
    </g>
</svg>