<?xml version="1.0" encoding="UTF-8"?>
<svg width="800px" height="800px" viewBox="0 0 800 800" version="1.1" xmlns="http://www.w3.org/2000/svg" xmlns:xlink="http://www.w3.org/1999/xlink">
    <title>github-142-svgrepo-com</title>
    <g id="Final-Designs" stroke="none" stroke-width="1" fill="none" fill-rule="evenodd">
        <g id="github-142-svgrepo-com" fill="#E5E5E5" fill-rule="nonzero">
            <path d="M400,0 C620.92,0 800,183.6 800,410.12 C800,591.28 685.52,744.96 526.68,799.24 C506.4,803.28 499.2,790.48 499.2,779.56 C499.2,766.04 499.68,721.88 499.68,667 C499.68,628.76 486.88,603.8 472.52,591.08 C561.6,580.92 655.2,546.24 655.2,388.72 C655.2,343.92 639.68,307.36 614,278.64 C618.16,268.28 631.88,226.56 610.08,170.08 C610.08,170.08 576.56,159.08 500.2,212.12 C468.24,203.04 434,198.48 400,198.32 C366,198.48 331.8,203.04 299.88,212.12 C223.44,159.08 189.84,170.08 189.84,170.08 C168.12,226.56 181.84,268.28 185.96,278.64 C160.4,307.36 144.76,343.92 144.76,388.72 C144.76,545.84 238.16,581.04 327,591.4 C315.56,601.64 305.2,619.72 301.6,646.24 C278.8,656.72 220.88,674.84 185.2,612.16 C185.2,612.16 164.04,572.76 123.88,569.88 C123.88,569.88 84.88,569.36 121.16,594.8 C121.16,594.8 147.36,607.4 165.56,654.8 C165.56,654.8 189.04,728 300.32,703.2 C300.52,737.48 300.88,769.8 300.88,779.56 C300.88,790.4 293.52,803.08 273.56,799.28 C114.6,745.08 0,591.32 0,410.12 C0,183.6 179.12,0 400,0" id="github-[#142]"></path>
        </g>
    </g>
</svg>