<?xml version="1.0" encoding="UTF-8"?>
<svg width="20px" height="19px" viewBox="0 0 20 19" version="1.1" xmlns="http://www.w3.org/2000/svg" xmlns:xlink="http://www.w3.org/1999/xlink">
    <title>{}</title>
    <g id="Final-Designs" stroke="none" stroke-width="1" fill="none" fill-rule="evenodd">
        <g id="DarkMode" transform="translate(-599.000000, -960.000000)" fill="#E5E5E5" fill-rule="nonzero">
            <g id="Group-26" transform="translate(312.500000, 263.000000)">
                <g id="{}" transform="translate(296.500000, 706.500000) rotate(-15.000000) translate(-296.500000, -706.500000) translate(288.411552, 699.671831)">
                    <path d="M6,11.7238532 L6,13 C4.61607143,12.9840979 3.58258929,12.7574924 2.89955357,12.3201835 C2.21651786,11.8828746 1.875,11.2269113 1.875,10.3522936 C1.875,10.066055 1.91964286,9.79571865 2.00892857,9.5412844 C2.09821429,9.28685015 2.14285714,9.0204893 2.14285714,8.74220183 C2.14285714,8.2969419 1.97321429,7.9530581 1.63392857,7.71055046 C1.29464286,7.46804281 0.75,7.3030581 -2.68077241e-14,7.21559633 L-2.68077241e-14,5.78440367 C0.75,5.6969419 1.29464286,5.53195719 1.63392857,5.28944954 C1.97321429,5.0469419 2.14285714,4.7030581 2.14285714,4.25779817 C2.14285714,3.9795107 2.09821429,3.71314985 2.00892857,3.4587156 C1.91964286,3.20428135 1.875,2.93394495 1.875,2.64770642 C1.875,1.77308869 2.21651786,1.11712538 2.89955357,0.679816514 C3.58258929,0.242507645 4.61607143,0.0159021407 6,-2.26397097e-14 L6,1.27614679 C5.13392857,1.33180428 4.50446429,1.47094801 4.11160714,1.69357798 C3.71875,1.91620795 3.52232143,2.24617737 3.52232143,2.68348624 C3.52232143,2.95382263 3.56696429,3.22415902 3.65625,3.49449541 C3.74553571,3.7648318 3.79017857,4.06697248 3.79017857,4.40091743 C3.79017857,4.87003058 3.62053571,5.28149847 3.28125,5.6353211 C2.94196429,5.98914373 2.47767857,6.23363914 1.88839286,6.36880734 L1.88839286,6.63119266 C2.47767857,6.76636086 2.94196429,7.01085627 3.28125,7.3646789 C3.62053571,7.71850153 3.79017857,8.12996942 3.79017857,8.59908257 C3.79017857,8.93302752 3.74553571,9.2351682 3.65625,9.50550459 C3.56696429,9.77584098 3.52232143,10.0461774 3.52232143,10.3165138 C3.52232143,10.7538226 3.71875,11.083792 4.11160714,11.306422 C4.50446429,11.529052 5.13392857,11.6681957 6,11.7238532 Z" id="Path"></path>
                    <path d="M10.1768964,12.380192 C11.0429678,12.3245345 11.6724321,12.1853908 12.0652892,11.9627608 C12.4581464,11.7401308 12.6545749,11.4101614 12.6545749,10.9728526 C12.6545749,10.7025162 12.6099321,10.4321798 12.5206464,10.1618434 C12.4313606,9.89150699 12.3867178,9.58936632 12.3867178,9.25542137 C12.3867178,8.78630822 12.5563606,8.37484033 12.8956464,8.0210177 C13.2349321,7.66719507 13.6992178,7.42269965 14.2885035,7.28753146 L14.2885035,7.02514614 C13.6992178,6.88997794 13.2349321,6.64548253 12.8956464,6.2916599 C12.5563606,5.93783727 12.3867178,5.52636938 12.3867178,5.05725623 C12.3867178,4.72331128 12.4313606,4.4211706 12.5206464,4.15083421 C12.6099321,3.88049782 12.6545749,3.61016143 12.6545749,3.33982504 C12.6545749,2.90251617 12.4581464,2.57254675 12.0652892,2.34991678 C11.6724321,2.12728681 11.0429678,1.98814308 10.1768964,1.93248559 L10.1768964,0.656338798 C11.5608249,0.672240939 12.5943071,0.898846444 13.2773428,1.33615531 C13.9603785,1.77346418 14.3018964,2.42942748 14.3018964,3.30404522 C14.3018964,3.59028375 14.2572535,3.86062014 14.1679678,4.11505439 C14.0786821,4.36948865 14.0340392,4.6358495 14.0340392,4.91413696 C14.0340392,5.3593969 14.2036821,5.70328069 14.5429678,5.94578834 C14.8822535,6.18829598 15.4268964,6.35328069 16.1768964,6.44074247 L16.1768964,7.87193513 C15.4268964,7.9593969 14.8822535,8.12438161 14.5429678,8.36688926 C14.2036821,8.6093969 14.0340392,8.95328069 14.0340392,9.39854063 C14.0340392,9.6768281 14.0786821,9.94318895 14.1679678,10.1976232 C14.2572535,10.4520575 14.3018964,10.7223938 14.3018964,11.0086324 C14.3018964,11.8832501 13.9603785,12.5392134 13.2773428,12.9765223 C12.5943071,13.4138312 11.5608249,13.6404367 10.1768964,13.6563388 L10.1768964,12.380192 Z" id="Path"></path>
                </g>
            </g>
        </g>
    </g>
</svg>