<?xml version="1.0" encoding="UTF-8"?>
<svg width="40px" height="40px" viewBox="0 0 40 40" version="1.1" xmlns="http://www.w3.org/2000/svg" xmlns:xlink="http://www.w3.org/1999/xlink">
    <title>Rectangle</title>
    <g id="Final-Designs" stroke="none" stroke-width="1" fill="none" fill-rule="evenodd" stroke-dasharray="6" stroke-linejoin="round">
        <g id="DarkMode" transform="translate(-396.000000, -433.000000)" stroke="#616262" stroke-width="2">
            <g id="Group-26" transform="translate(312.500000, 263.000000)">
                <path d="M90.909713,171 L116.090287,171 C118.319084,171 119.127299,171.232064 119.942114,171.667832 C120.756929,172.103599 121.396401,172.743071 121.832168,173.557886 C122.267936,174.372701 122.5,175.180916 122.5,177.409713 L122.5,202.590287 C122.5,204.819084 122.267936,205.627299 121.832168,206.442114 C121.396401,207.256929 120.756929,207.896401 119.942114,208.332168 C119.127299,208.767936 118.319084,209 116.090287,209 L90.909713,209 C88.6809162,209 87.8727006,208.767936 87.0578857,208.332168 C86.2430709,207.896401 85.6035995,207.256929 85.1678318,206.442114 C84.732064,205.627299 84.5,204.819084 84.5,202.590287 L84.5,177.409713 C84.5,175.180916 84.732064,174.372701 85.1678318,173.557886 C85.6035995,172.743071 86.2430709,172.103599 87.0578857,171.667832 C87.8727006,171.232064 88.6809162,171 90.909713,171 Z" id="Rectangle"></path>
            </g>
        </g>
    </g>
</svg>